<svg width="166" height="72" xmlns="http://www.w3.org/2000/svg" xmlns:xlink="http://www.w3.org/1999/xlink"><defs><rect id="a" width="47" height="24" rx="3"/></defs><g transform="translate(1 1)" fill="none" fill-rule="evenodd"><circle fill="#F4CE6A" cx="79" cy="37" r="17"/><path d="M79.043 27c-1.922 0-2.727 1.569-2.508 3.292 1.045 6.702 1.458 9.001 1.458 9.001.032.453.445.799.986.799.604 0 1.018-.346 1.05-.799 0 0 .336-1.932 1.452-9C81.632 28.86 80.88 27 79.043 27zm1.717 18.324c0-.915-.795-1.677-1.75-1.677-.953 0-1.748.762-1.748 1.677 0 .883.795 1.676 1.749 1.676.954 0 1.749-.793 1.749-1.676z" fill="#FFF"/><g transform="translate(105)"><use fill="#F9FAFF" xlink:href="#a"/><rect stroke="#C6CBDE" x="-.5" y="-.5" width="48" height="25" rx="3"/><path d="M.5 14.5h46" stroke="#C6CBDE" stroke-linecap="square"/><path d="M3 0h41a3 3 0 0 1 3 3v11H0V3a3 3 0 0 1 3-3z" fill="#FFF" opacity=".515"/><rect fill="#F1F2FA" x="4" y="4" width="31" height="6" rx="1"/><rect fill="#F1F2FA" x="4" y="18" width="23" height="3" rx="1"/></g><g transform="translate(111 45)"><path d="M3 0h42a3 3 0 0 1 3 3v19a3 3 0 0 1-3 3H3a3 3 0 0 1-3-3V3a3 3 0 0 1 3-3zM1.5 14.5h46" stroke="#C6CBDE" stroke-linecap="round" stroke-dasharray="3,3"/><rect fill="#F1F2FA" opacity=".5" x="4" y="4" width="31" height="6" rx="1"/><rect fill="#F1F2FA" opacity=".5" x="4" y="18" width="23" height="3" rx="1"/></g><g transform="translate(0 22)"><path d="M3 0h42a3 3 0 0 1 3 3v19a3 3 0 0 1-3 3H3a3 3 0 0 1-3-3V3a3 3 0 0 1 3-3zM1.5 14.5h46" stroke="#C6CBDE" stroke-linecap="round" stroke-dasharray="3,3"/><rect fill="#F1F2FA" opacity=".5" x="4" y="4" width="31" height="6" rx="1"/><rect fill="#F1F2FA" opacity=".5" x="4" y="18" width="23" height="3" rx="1"/></g><g transform="translate(150 39)"><circle fill="#E4E6F2" cx="7.5" cy="7.5" r="7.5"/><text font-family=".AppleSystemUIFont" font-size="10" letter-spacing="-.077" fill="#FFF"><tspan x="4.916" y="11">?</tspan></text></g><circle fill="#E4E6F2" cx="46.5" cy="23.5" r="7.5"/><text font-family=".AppleSystemUIFont" font-size="10" letter-spacing="-.077" fill="#FFF"><tspan x="43.916" y="27">?</tspan></text></g></svg>