<svg width="20" height="18" viewBox="0 0 20 18" fill="none" xmlns="http://www.w3.org/2000/svg">
<path d="M1 3C1 1.89543 1.89543 1 3 1H17C18.1046 1 19 1.89543 19 3V11C19 12.1046 18.1046 13 17 13H16V17L12 13H3C1.89543 13 1 12.1046 1 11V3Z" stroke="#838487" stroke-linejoin="round"/>
<path d="M6 7C6 7.55228 5.55228 8 5 8C4.44772 8 4 7.55228 4 7C4 6.44772 4.44772 6 5 6C5.55228 6 6 6.44772 6 7Z" stroke="#838487"/>
<path d="M11 7C11 7.55228 10.5523 8 10 8C9.44772 8 9 7.55228 9 7C9 6.44772 9.44772 6 10 6C10.5523 6 11 6.44772 11 7Z" stroke="#838487"/>
<path d="M16 7C16 7.55228 15.5523 8 15 8C14.4477 8 14 7.55228 14 7C14 6.44772 14.4477 6 15 6C15.5523 6 16 6.44772 16 7Z" stroke="#838487"/>
</svg>
