<?xml version="1.0" encoding="UTF-8"?>
<svg width="16px" height="16px" viewBox="0 0 16 16" version="1.1" xmlns="http://www.w3.org/2000/svg" xmlns:xlink="http://www.w3.org/1999/xlink">
    <title>GooglePlus</title>
    <desc>Created with Sketch.</desc>
    <defs></defs>
    <g id="Page-1" stroke="none" stroke-width="1" fill="none" fill-rule="evenodd">
        <g id="sign-up-popup" transform="translate(-477.000000, -383.000000)" fill="#FFFFFF">
            <g id="Group" transform="translate(391.000000, 32.000000)">
                <g id="Create-account-button" transform="translate(64.000000, 335.000000)">
                    <path d="M30.1124606,25.5841584 C30.1124606,25.5841584 33.2292519,25.5800396 34.4983299,25.5800396 C33.8111,27.6339802 32.7425042,28.7524752 30.1124606,28.7524752 C27.4508506,28.7524752 25.3734985,26.6247129 25.3734985,24 C25.3734985,21.3752871 27.4508506,19.2475248 30.1124606,19.2475248 C31.5196914,19.2475248 32.4285279,19.7352871 33.2621836,20.4151287 C33.9294938,19.7570693 33.8737507,19.6632871 35.571504,18.0822178 C34.1302972,16.7885941 32.2147927,16 30.1124606,16 C25.632053,16 22,19.581703 22,24 C22,28.4182178 25.632053,32 30.1124606,32 C36.8094173,32 38.4462869,26.249505 37.9036356,22.4158416 L30.1124606,22.4158416 L30.1124606,25.5841584 Z" id="GooglePlus"></path>
                </g>
            </g>
        </g>
    </g>
</svg>