<svg width="15" height="15" xmlns="http://www.w3.org/2000/svg"><g transform="translate(1 1)" stroke="#FFF" fill="none" fill-rule="evenodd"><circle fill="#F4CE6A" cx="6.5" cy="6.5" r="6.5"/><path d="M6.517 2.5c-.769 0-1.09.613-1.003 1.285.418 2.617.583 3.515.583 3.515.013.177.178.312.395.312.241 0 .407-.135.42-.312 0 0 .134-.754.58-3.515.06-.559-.24-1.285-.975-1.285zm.687 7.155c0-.357-.318-.655-.7-.655-.381 0-.7.298-.7.655 0 .345.319.654.7.654.382 0 .7-.31.7-.654z" stroke-width=".5" fill="#FFF"/></g></svg>